# xmcd
# Copyright (C) 1995-1998 Ti Kan
#
# Track frame offsets:
#       150
#       16600
#       38978
#       56408
#       71121
#       88589
#       101789
#       124473
#       137586
#       149415
#       155452
#       167020
#       190820
#       209688
#       225378
#       243448
#       262315
#       277333
#       294778
#       327971
#
# Disc length: 4651 seconds
#
# Revision: 0
# Processed by: cddbd v1.5.2PL0 Copyright (c) Steve Scherf et al.
# Submitted via: CD-Transfer v1.0
#
DISCID=31122914
DTITLE=Aaa - 
DYEAR=1900
DGENRE=
TTITLE0=Always Look On The Bright Side Of Life (Monty Phyton)
TTITLE1=Belle (Notre Dame De Paris - Fiori/Garou/Lavoie)
TTITLE2=Schöpfung: Die Himmel Erzählen Die Ehre Gottes (Haydn)
TTITLE3=Tous Les Garçons Et Le Filles (Françoise Hardy)
TTITLE4=Another Brick In The Wall (Pink Floyd)
TTITLE5=Pirat (Stiller Has)
TTITLE6=Members Only (Philippe Fankhauser)
TTITLE7=Aline (Christophe)
TTITLE8=Verdi, Requiem: Dies Irae
TTITLE9=Ir Ysebahn (Mani Matter)
TTITLE10=Le Méteque (Georges Moustaki)
TTITLE11=Ja, Schatz (Bodo Wartke)
TTITLE12=A Whiter Shade Of Pale (Procol Haru)
TTITLE13=Schöpfung: Singt Dem Herren Alle Stimmen (Haydn)
TTITLE14=Wish Youwere Here (Rednex)
TTITLE15=Nathalie (Gilbert Bécaud)
TTITLE16=Moonlight Shadow (Maggie Reilly)
TTITLE17=Next Time You Fall In Love (Starlight Express - A.l.webber)
TTITLE18=Schlaf-Engel (Jean-Pierre Von Dach)
TTITLE19=Mein Testament (Reinhard Mey)
EXTD=
EXTT0=
EXTT1=
EXTT2=
EXTT3=
EXTT4=
EXTT5=
EXTT6=
EXTT7=
EXTT8=
EXTT9=
EXTT10=
EXTT11=
EXTT12=
EXTT13=
EXTT14=
EXTT15=
EXTT16=
EXTT17=
EXTT18=
EXTT19=
PLAYORDER=
